<svg width="565" height="326" viewBox="0 0 565 326" fill="none" xmlns="http://www.w3.org/2000/svg">
<rect width="565" height="326" fill="#2E2F41"/>
<path fill-rule="evenodd" clip-rule="evenodd" d="M239.011 127.718L239 127.729L270.729 213L279.065 176.903L271.615 163.007L268.429 169L267.546 168.531L267.564 168.496L239.011 127.718ZM268.091 167.505L239.729 127L249.729 117L254.729 112H255.004C254.869 112.909 255.151 113.867 255.85 114.567L280.944 139.66C281.357 140.074 281.861 140.341 282.391 140.463L282.43 140.537L268.091 167.505ZM312.389 112.458C312.532 112.315 312.657 112.162 312.765 112H313.729L318.729 117L326.729 125V126.44L297.967 167.855L283.562 140.539L283.586 140.494C284.172 140.391 284.734 140.113 285.186 139.66L312.389 112.458ZM298.512 168.888L298.493 168.851L325.773 129.57L294.729 213L286.397 176.922L294.07 162.609L297.63 169.36L298.512 168.888Z" fill="#F8F0DB"/>
</svg>
